<svg xmlns="http://www.w3.org/2000/svg" xmlns:xlink="http://www.w3.org/1999/xlink" width="3151.515" height="825.758" xmlns:v="https://vecta.io/nano"><defs><linearGradient id="A" spreadMethod="pad" gradientUnits="userSpaceOnUse"><stop offset="0" stop-color="#ff8597"/><stop offset="1" stop-color="#ffc6d2" stop-opacity=".7"/></linearGradient><linearGradient id="B" x1="339.246" y1="37.578" x2="390.918" y2="37.578" xlink:href="#A"><stop offset="0" stop-color="#ff8598"/><stop offset="1" stop-color="#ffc6d2" stop-opacity=".9"/></linearGradient><linearGradient y2="29.344" x2="365.755" y1="29.344" x1="316.306" id="C" xlink:href="#A"/></defs><g transform="matrix(7.575758 0 0 7.575758 75.757576 75.757576)"><path d="M372.436 60.12c-2.567-6.57-2.263-11.298.805-12.465l5.053-1.837c8.932-3.182 13.363-9.522 12.523-17.917-1.01-10.104-10.8-16.24-25.914-16.24-13.24 0-22.603 5.037-24.968 13.433-2.275 8.083 1.148 15.428 9.134 19.607 1.364.735 7.385 5.236 13.335 10.043l11.1 8.745c.135 0-.346-1.517-1.055-3.373z" fill="url(#B)"/><path d="M342.32 1.793c-15.114 0-24.905 6.522-25.914 17.263-.84 8.928 3.592 15.667 12.523 19.05l5.053 1.95c3.068 1.24 3.376 6.246.805 13.25-.726 1.973-1.208 3.586-1.055 3.586s4.87-3.922 10.84-9.035l3.98-3.487c-7.42-4.225-10.807-11.103-8.61-18.915 2.363-8.395 11.464-13.695 24.704-13.695l1.125.013c-3.736-6.637-12.185-9.98-23.435-9.98z" fill="url(#C)"/><path d="M22.33 79C9.944 79 0 69.9 0 57.258c0-12.303 9.607-21.742 22.247-21.742 6.236 0 11.966 2.36 16.01 6.573l-7.247 7.247c-1.938-2.444-5.225-3.876-8.68-3.876-6.236 0-10.534 4.803-10.534 11.798S16.18 69.056 22.5 69.056c3.624 0 6.994-1.6 8.933-4.298l7.584 6.826C35.225 76.303 29.157 79 22.33 79zm49.593-21.742c0-6.994-4.298-11.798-10.45-11.798s-10.45 4.803-10.45 11.798 4.298 11.798 10.45 11.798 10.45-4.803 10.45-11.798zm11.798 0C83.722 69.562 74.03 79 61.475 79s-22.247-9.438-22.247-21.742 9.69-21.742 22.247-21.742 22.247 9.438 22.247 21.742zM99.86 19v58.99H88.146V19H99.86zm18.75 0v58.99h-11.713V19H118.6zm24.817 16.517c11.208 0 18.37 5.983 18.37 15.42v27.05h-11.713v-3.792C147.135 77.23 142.92 79 138.118 79c-8.764 0-15.42-5.983-15.42-13.904 0-8.427 7.33-13.99 18.455-13.99 2.612 0 5.983.674 8.933 1.77V51.36c0-3.708-3.202-5.9-8.764-5.9-4.298 0-9.185 1.348-11.376 3.118l-4.888-8.258c5.646-2.95 12.64-4.803 18.37-4.803zm-2.107 34.888c4.72 0 8.764-2.865 8.764-6.404v-3.876c-2.19-.843-5.14-1.348-7.5-1.348-5.056 0-8.596 2.444-8.596 5.983 0 3.37 2.95 5.646 7.33 5.646zM168.413 19h11.713v21.994c2.78-3.287 7.33-5.478 12.05-5.478 12.135 0 20.646 9.017 20.646 21.742S204.312 79 192.43 79c-4.635 0-9.944-2.19-12.303-5.815v4.803h-11.713V19zm32.612 38.258c0-6.49-3.792-11.798-10.787-11.798-5.815 0-10.112 5.056-10.112 11.798s4.382 11.798 10.28 11.798c6.32 0 10.618-4.72 10.618-11.798zM232.33 44.28c-3.118 0-6.236.927-6.236 3.792 0 6.657 24.607.927 24.607 17.444 0 9.607-8.764 13.483-16.938 13.483-7.416 0-14.157-2.528-19.55-7.163l5.478-7.416c3.96 3.624 9.27 5.815 14.073 5.815 2.612 0 6.49-.506 6.49-3.876 0-6.994-24.607-1.264-24.607-17.444 0-9.354 8.596-13.4 16.854-13.4 5.393 0 11.545 1.938 16.348 5.646l-5.225 7.5c-3.37-2.78-7.5-4.382-11.292-4.382zm19.17-7.753h6.49V25.405h11.713v11.124h9.354v9.354h-9.354v18.202c0 3.287 1.77 4.972 4.888 4.972 1.6 0 2.612-.506 3.37-1.264l2.697 9.017c-1.854 1.264-6.067 2.19-8.764 2.19-9.017 0-13.904-4.298-13.904-14.4V45.882h-6.49v-9.354zm44.03 0v7.247c2.528-4.635 8.1-8.258 13.567-8.258h.843v11.04c-.758-.17-1.854-.253-2.612-.253-5.815 0-11.798 4.298-11.798 10.787v20.9H283.82v-41.46h11.713z" fill="#333"/></g></svg>